<mxfile host="app.diagrams.net" modified="2020-04-17T08:05:27.596Z" agent="5.0 (Macintosh; Intel Mac OS X 10_14_2) AppleWebKit/537.36 (KHTML, like Gecko) Chrome/80.0.3987.149 Safari/537.36" etag="R1i56KwroGCr_xpyBEQ7" version="12.9.14" type="github" pages="2">
  <diagram id="5dy7yaolOnMXZYMXIKAr" name="应用架构改造方案">
    <mxGraphModel dx="946" dy="468" grid="1" gridSize="10" guides="1" tooltips="1" connect="1" arrows="1" fold="1" page="1" pageScale="1" pageWidth="827" pageHeight="1169" math="0" shadow="0">
      <root>
        <mxCell id="0" />
        <mxCell id="1" parent="0" />
        <mxCell id="OHUG3ohnD9J3LGAaQfuR-18" style="edgeStyle=orthogonalEdgeStyle;rounded=0;orthogonalLoop=1;jettySize=auto;html=1;exitX=1;exitY=0.5;exitDx=0;exitDy=0;entryX=0;entryY=0.5;entryDx=0;entryDy=0;fontSize=14;" edge="1" parent="1" source="OHUG3ohnD9J3LGAaQfuR-1" target="OHUG3ohnD9J3LGAaQfuR-15">
          <mxGeometry relative="1" as="geometry" />
        </mxCell>
        <mxCell id="OHUG3ohnD9J3LGAaQfuR-19" value="odps" style="edgeLabel;html=1;align=center;verticalAlign=middle;resizable=0;points=[];fontSize=14;" vertex="1" connectable="0" parent="OHUG3ohnD9J3LGAaQfuR-18">
          <mxGeometry x="-0.1" y="3" relative="1" as="geometry">
            <mxPoint as="offset" />
          </mxGeometry>
        </mxCell>
        <mxCell id="OHUG3ohnD9J3LGAaQfuR-1" value="miracle-restaurant" style="rounded=0;whiteSpace=wrap;html=1;fontSize=14;fillColor=#bac8d3;strokeColor=#23445d;" vertex="1" parent="1">
          <mxGeometry x="480" y="252" width="120" height="60" as="geometry" />
        </mxCell>
        <mxCell id="OHUG3ohnD9J3LGAaQfuR-5" style="edgeStyle=orthogonalEdgeStyle;rounded=0;orthogonalLoop=1;jettySize=auto;html=1;exitX=0.5;exitY=1;exitDx=0;exitDy=0;entryX=0.5;entryY=0;entryDx=0;entryDy=0;fontSize=14;" edge="1" parent="1" source="OHUG3ohnD9J3LGAaQfuR-2" target="OHUG3ohnD9J3LGAaQfuR-1">
          <mxGeometry relative="1" as="geometry" />
        </mxCell>
        <mxCell id="OHUG3ohnD9J3LGAaQfuR-2" value="open-api" style="rounded=0;whiteSpace=wrap;html=1;fontSize=14;" vertex="1" parent="1">
          <mxGeometry x="480" y="142" width="120" height="60" as="geometry" />
        </mxCell>
        <mxCell id="OHUG3ohnD9J3LGAaQfuR-4" style="edgeStyle=orthogonalEdgeStyle;rounded=0;orthogonalLoop=1;jettySize=auto;html=1;exitX=0.5;exitY=1;exitDx=0;exitDy=0;entryX=0.5;entryY=0;entryDx=0;entryDy=0;fontSize=14;" edge="1" parent="1" source="OHUG3ohnD9J3LGAaQfuR-3" target="OHUG3ohnD9J3LGAaQfuR-2">
          <mxGeometry relative="1" as="geometry" />
        </mxCell>
        <mxCell id="OHUG3ohnD9J3LGAaQfuR-3" value="KA系统" style="rounded=0;whiteSpace=wrap;html=1;" vertex="1" parent="1">
          <mxGeometry x="480" y="40" width="120" height="60" as="geometry" />
        </mxCell>
        <mxCell id="OHUG3ohnD9J3LGAaQfuR-7" style="edgeStyle=orthogonalEdgeStyle;rounded=0;orthogonalLoop=1;jettySize=auto;html=1;exitX=1;exitY=0.5;exitDx=0;exitDy=0;entryX=0;entryY=0.5;entryDx=0;entryDy=0;fontSize=14;" edge="1" parent="1" source="OHUG3ohnD9J3LGAaQfuR-6" target="OHUG3ohnD9J3LGAaQfuR-1">
          <mxGeometry relative="1" as="geometry" />
        </mxCell>
        <mxCell id="OHUG3ohnD9J3LGAaQfuR-61" value="同步" style="edgeLabel;html=1;align=center;verticalAlign=middle;resizable=0;points=[];fontSize=14;fontColor=#000000;" vertex="1" connectable="0" parent="OHUG3ohnD9J3LGAaQfuR-7">
          <mxGeometry y="-1" relative="1" as="geometry">
            <mxPoint as="offset" />
          </mxGeometry>
        </mxCell>
        <mxCell id="OHUG3ohnD9J3LGAaQfuR-6" value="shop-growth" style="rounded=0;whiteSpace=wrap;html=1;fontSize=14;" vertex="1" parent="1">
          <mxGeometry x="250" y="252" width="120" height="60" as="geometry" />
        </mxCell>
        <mxCell id="OHUG3ohnD9J3LGAaQfuR-9" style="edgeStyle=orthogonalEdgeStyle;rounded=0;orthogonalLoop=1;jettySize=auto;html=1;exitX=1;exitY=0.5;exitDx=0;exitDy=0;entryX=0;entryY=0.5;entryDx=0;entryDy=0;fontSize=14;" edge="1" parent="1" source="OHUG3ohnD9J3LGAaQfuR-8" target="OHUG3ohnD9J3LGAaQfuR-6">
          <mxGeometry relative="1" as="geometry" />
        </mxCell>
        <mxCell id="OHUG3ohnD9J3LGAaQfuR-11" value="APP端" style="edgeLabel;html=1;align=center;verticalAlign=middle;resizable=0;points=[];fontSize=14;" vertex="1" connectable="0" parent="OHUG3ohnD9J3LGAaQfuR-9">
          <mxGeometry x="-0.1833" y="1" relative="1" as="geometry">
            <mxPoint as="offset" />
          </mxGeometry>
        </mxCell>
        <mxCell id="OHUG3ohnD9J3LGAaQfuR-10" style="edgeStyle=orthogonalEdgeStyle;rounded=0;orthogonalLoop=1;jettySize=auto;html=1;exitX=0.5;exitY=1;exitDx=0;exitDy=0;entryX=0.5;entryY=1;entryDx=0;entryDy=0;fontSize=14;" edge="1" parent="1" source="OHUG3ohnD9J3LGAaQfuR-8" target="OHUG3ohnD9J3LGAaQfuR-1">
          <mxGeometry relative="1" as="geometry">
            <Array as="points">
              <mxPoint x="70" y="372" />
              <mxPoint x="540" y="372" />
            </Array>
          </mxGeometry>
        </mxCell>
        <mxCell id="OHUG3ohnD9J3LGAaQfuR-12" value="PC端" style="edgeLabel;html=1;align=center;verticalAlign=middle;resizable=0;points=[];fontSize=14;" vertex="1" connectable="0" parent="OHUG3ohnD9J3LGAaQfuR-10">
          <mxGeometry x="-0.2172" y="3" relative="1" as="geometry">
            <mxPoint as="offset" />
          </mxGeometry>
        </mxCell>
        <mxCell id="OHUG3ohnD9J3LGAaQfuR-8" value="napos商户申请歇业" style="ellipse;whiteSpace=wrap;html=1;fontSize=14;" vertex="1" parent="1">
          <mxGeometry x="10" y="242" width="120" height="80" as="geometry" />
        </mxCell>
        <mxCell id="OHUG3ohnD9J3LGAaQfuR-14" style="edgeStyle=orthogonalEdgeStyle;rounded=0;orthogonalLoop=1;jettySize=auto;html=1;exitX=1;exitY=0.5;exitDx=0;exitDy=0;entryX=0;entryY=0.5;entryDx=0;entryDy=0;fontSize=14;" edge="1" parent="1" source="OHUG3ohnD9J3LGAaQfuR-13" target="OHUG3ohnD9J3LGAaQfuR-3">
          <mxGeometry relative="1" as="geometry" />
        </mxCell>
        <mxCell id="OHUG3ohnD9J3LGAaQfuR-13" value="KA商户申请歇业" style="ellipse;whiteSpace=wrap;html=1;fontSize=14;" vertex="1" parent="1">
          <mxGeometry x="250" y="30" width="120" height="80" as="geometry" />
        </mxCell>
        <mxCell id="OHUG3ohnD9J3LGAaQfuR-15" value="rank排名保护" style="rounded=0;whiteSpace=wrap;html=1;fontSize=14;" vertex="1" parent="1">
          <mxGeometry x="703" y="252" width="120" height="60" as="geometry" />
        </mxCell>
        <mxCell id="OHUG3ohnD9J3LGAaQfuR-20" value="当前现状" style="text;html=1;align=center;verticalAlign=middle;resizable=0;points=[];autosize=1;fontSize=17;labelBackgroundColor=none;labelBorderColor=none;fontColor=#FF0000;" vertex="1" parent="1">
          <mxGeometry x="10" width="80" height="30" as="geometry" />
        </mxCell>
        <mxCell id="OHUG3ohnD9J3LGAaQfuR-21" value="" style="endArrow=none;dashed=1;html=1;fontSize=17;fontColor=#FF0000;labelBorderColor=none;strokeWidth=1;" edge="1" parent="1">
          <mxGeometry width="50" height="50" relative="1" as="geometry">
            <mxPoint x="10" y="400" as="sourcePoint" />
            <mxPoint x="820" y="400" as="targetPoint" />
          </mxGeometry>
        </mxCell>
        <mxCell id="OHUG3ohnD9J3LGAaQfuR-22" style="edgeStyle=orthogonalEdgeStyle;rounded=0;orthogonalLoop=1;jettySize=auto;html=1;exitX=1;exitY=0.5;exitDx=0;exitDy=0;entryX=0;entryY=0.5;entryDx=0;entryDy=0;fontSize=14;" edge="1" parent="1" source="OHUG3ohnD9J3LGAaQfuR-30" target="OHUG3ohnD9J3LGAaQfuR-38">
          <mxGeometry relative="1" as="geometry" />
        </mxCell>
        <mxCell id="OHUG3ohnD9J3LGAaQfuR-23" value="odps" style="edgeLabel;html=1;align=center;verticalAlign=middle;resizable=0;points=[];fontSize=14;" vertex="1" connectable="0" parent="OHUG3ohnD9J3LGAaQfuR-22">
          <mxGeometry x="-0.1" y="3" relative="1" as="geometry">
            <mxPoint as="offset" />
          </mxGeometry>
        </mxCell>
        <mxCell id="OHUG3ohnD9J3LGAaQfuR-24" value="miracle-restaurant" style="rounded=0;whiteSpace=wrap;html=1;fontSize=14;" vertex="1" parent="1">
          <mxGeometry x="250" y="810" width="120" height="60" as="geometry" />
        </mxCell>
        <mxCell id="OHUG3ohnD9J3LGAaQfuR-25" style="edgeStyle=orthogonalEdgeStyle;rounded=0;orthogonalLoop=1;jettySize=auto;html=1;exitX=0.5;exitY=1;exitDx=0;exitDy=0;entryX=0.5;entryY=0;entryDx=0;entryDy=0;fontSize=14;" edge="1" parent="1" source="OHUG3ohnD9J3LGAaQfuR-26" target="OHUG3ohnD9J3LGAaQfuR-30">
          <mxGeometry relative="1" as="geometry" />
        </mxCell>
        <mxCell id="OHUG3ohnD9J3LGAaQfuR-26" value="open-api" style="rounded=0;whiteSpace=wrap;html=1;fontSize=14;" vertex="1" parent="1">
          <mxGeometry x="250" y="580" width="120" height="60" as="geometry" />
        </mxCell>
        <mxCell id="OHUG3ohnD9J3LGAaQfuR-27" style="edgeStyle=orthogonalEdgeStyle;rounded=0;orthogonalLoop=1;jettySize=auto;html=1;exitX=0.5;exitY=1;exitDx=0;exitDy=0;entryX=0.5;entryY=0;entryDx=0;entryDy=0;fontSize=14;" edge="1" parent="1" source="OHUG3ohnD9J3LGAaQfuR-28" target="OHUG3ohnD9J3LGAaQfuR-26">
          <mxGeometry relative="1" as="geometry" />
        </mxCell>
        <mxCell id="OHUG3ohnD9J3LGAaQfuR-28" value="&lt;font style=&quot;font-size: 14px&quot;&gt;KA系统&lt;/font&gt;" style="rounded=0;whiteSpace=wrap;html=1;" vertex="1" parent="1">
          <mxGeometry x="250" y="470" width="120" height="60" as="geometry" />
        </mxCell>
        <mxCell id="OHUG3ohnD9J3LGAaQfuR-60" style="edgeStyle=orthogonalEdgeStyle;rounded=0;orthogonalLoop=1;jettySize=auto;html=1;exitX=0.5;exitY=1;exitDx=0;exitDy=0;strokeWidth=1;fontSize=17;fontColor=#FF0000;" edge="1" parent="1" source="OHUG3ohnD9J3LGAaQfuR-30" target="OHUG3ohnD9J3LGAaQfuR-24">
          <mxGeometry relative="1" as="geometry" />
        </mxCell>
        <mxCell id="OHUG3ohnD9J3LGAaQfuR-62" value="打标" style="edgeLabel;html=1;align=center;verticalAlign=middle;resizable=0;points=[];fontSize=14;fontColor=#000000;" vertex="1" connectable="0" parent="OHUG3ohnD9J3LGAaQfuR-60">
          <mxGeometry x="-0.2667" y="1" relative="1" as="geometry">
            <mxPoint as="offset" />
          </mxGeometry>
        </mxCell>
        <mxCell id="OHUG3ohnD9J3LGAaQfuR-30" value="&lt;p class=&quot;p1&quot; style=&quot;margin: 0px ; font-stretch: normal ; line-height: normal ; font-family: &amp;#34;helvetica neue&amp;#34;&quot;&gt;&lt;font style=&quot;font-size: 14px&quot;&gt;shop.operation&lt;/font&gt;&lt;/p&gt;" style="rounded=0;whiteSpace=wrap;html=1;fontSize=14;fillColor=#bac8d3;strokeColor=#23445d;" vertex="1" parent="1">
          <mxGeometry x="250" y="690" width="120" height="60" as="geometry" />
        </mxCell>
        <mxCell id="OHUG3ohnD9J3LGAaQfuR-31" style="edgeStyle=orthogonalEdgeStyle;rounded=0;orthogonalLoop=1;jettySize=auto;html=1;exitX=1;exitY=0.5;exitDx=0;exitDy=0;entryX=0;entryY=0.5;entryDx=0;entryDy=0;fontSize=14;" edge="1" parent="1" source="OHUG3ohnD9J3LGAaQfuR-35" target="OHUG3ohnD9J3LGAaQfuR-30">
          <mxGeometry relative="1" as="geometry" />
        </mxCell>
        <mxCell id="OHUG3ohnD9J3LGAaQfuR-35" value="napos商户申请歇业" style="ellipse;whiteSpace=wrap;html=1;fontSize=14;" vertex="1" parent="1">
          <mxGeometry x="10" y="680" width="120" height="80" as="geometry" />
        </mxCell>
        <mxCell id="OHUG3ohnD9J3LGAaQfuR-36" style="edgeStyle=orthogonalEdgeStyle;rounded=0;orthogonalLoop=1;jettySize=auto;html=1;exitX=1;exitY=0.5;exitDx=0;exitDy=0;entryX=0;entryY=0.5;entryDx=0;entryDy=0;fontSize=14;" edge="1" parent="1" source="OHUG3ohnD9J3LGAaQfuR-37" target="OHUG3ohnD9J3LGAaQfuR-28">
          <mxGeometry relative="1" as="geometry" />
        </mxCell>
        <mxCell id="OHUG3ohnD9J3LGAaQfuR-37" value="KA商户申请歇业" style="ellipse;whiteSpace=wrap;html=1;fontSize=14;" vertex="1" parent="1">
          <mxGeometry x="10" y="460" width="120" height="80" as="geometry" />
        </mxCell>
        <mxCell id="OHUG3ohnD9J3LGAaQfuR-38" value="rank排名保护" style="rounded=0;whiteSpace=wrap;html=1;fontSize=14;" vertex="1" parent="1">
          <mxGeometry x="520" y="690" width="120" height="60" as="geometry" />
        </mxCell>
        <mxCell id="OHUG3ohnD9J3LGAaQfuR-39" value="改造目标" style="text;html=1;align=center;verticalAlign=middle;resizable=0;points=[];autosize=1;fontSize=17;labelBackgroundColor=none;labelBorderColor=none;fontColor=#FF0000;" vertex="1" parent="1">
          <mxGeometry x="10" y="410" width="80" height="30" as="geometry" />
        </mxCell>
      </root>
    </mxGraphModel>
  </diagram>
  <diagram id="953FE61nGdoR_iEtkGWG" name="用例图">
    <mxGraphModel dx="946" dy="468" grid="1" gridSize="10" guides="1" tooltips="1" connect="1" arrows="1" fold="1" page="1" pageScale="1" pageWidth="827" pageHeight="1169" math="0" shadow="0">
      <root>
        <mxCell id="Ogh5AydVDZ4R3wfZ8upF-0" />
        <mxCell id="Ogh5AydVDZ4R3wfZ8upF-1" parent="Ogh5AydVDZ4R3wfZ8upF-0" />
        <mxCell id="Ogh5AydVDZ4R3wfZ8upF-6" style="rounded=0;orthogonalLoop=1;jettySize=auto;html=1;exitX=1;exitY=0.3333333333333333;exitDx=0;exitDy=0;exitPerimeter=0;entryX=0;entryY=0.5;entryDx=0;entryDy=0;strokeWidth=1;fontSize=14;fontColor=#000000;endArrow=open;endFill=0;dashed=1;" edge="1" parent="Ogh5AydVDZ4R3wfZ8upF-1" source="Ogh5AydVDZ4R3wfZ8upF-2" target="Ogh5AydVDZ4R3wfZ8upF-5">
          <mxGeometry relative="1" as="geometry" />
        </mxCell>
        <mxCell id="Ogh5AydVDZ4R3wfZ8upF-9" style="edgeStyle=none;rounded=0;orthogonalLoop=1;jettySize=auto;html=1;exitX=1;exitY=0.3333333333333333;exitDx=0;exitDy=0;exitPerimeter=0;entryX=0;entryY=0.5;entryDx=0;entryDy=0;strokeWidth=1;fontSize=14;fontColor=#000000;endArrow=open;endFill=0;dashed=1;" edge="1" parent="Ogh5AydVDZ4R3wfZ8upF-1" source="Ogh5AydVDZ4R3wfZ8upF-2" target="Ogh5AydVDZ4R3wfZ8upF-8">
          <mxGeometry relative="1" as="geometry" />
        </mxCell>
        <mxCell id="Ogh5AydVDZ4R3wfZ8upF-25" style="edgeStyle=none;rounded=0;orthogonalLoop=1;jettySize=auto;html=1;exitX=1;exitY=0.3333333333333333;exitDx=0;exitDy=0;exitPerimeter=0;entryX=0;entryY=0.5;entryDx=0;entryDy=0;dashed=1;endArrow=open;endFill=0;strokeWidth=1;fontSize=14;fontColor=#000000;" edge="1" parent="Ogh5AydVDZ4R3wfZ8upF-1" source="Ogh5AydVDZ4R3wfZ8upF-2" target="Ogh5AydVDZ4R3wfZ8upF-24">
          <mxGeometry relative="1" as="geometry" />
        </mxCell>
        <mxCell id="Ogh5AydVDZ4R3wfZ8upF-2" value="商户" style="shape=umlActor;verticalLabelPosition=bottom;labelBackgroundColor=#ffffff;verticalAlign=top;html=1;outlineConnect=0;rounded=0;glass=0;strokeColor=#000000;fontSize=14;fontColor=#000000;" vertex="1" parent="Ogh5AydVDZ4R3wfZ8upF-1">
          <mxGeometry x="30" y="260" width="30" height="60" as="geometry" />
        </mxCell>
        <mxCell id="Ogh5AydVDZ4R3wfZ8upF-23" style="edgeStyle=none;rounded=0;orthogonalLoop=1;jettySize=auto;html=1;exitX=1;exitY=0.3333333333333333;exitDx=0;exitDy=0;exitPerimeter=0;entryX=0;entryY=0.5;entryDx=0;entryDy=0;dashed=1;endArrow=open;endFill=0;strokeWidth=1;fontSize=14;fontColor=#000000;" edge="1" parent="Ogh5AydVDZ4R3wfZ8upF-1" source="Ogh5AydVDZ4R3wfZ8upF-4" target="Ogh5AydVDZ4R3wfZ8upF-20">
          <mxGeometry relative="1" as="geometry" />
        </mxCell>
        <mxCell id="Ogh5AydVDZ4R3wfZ8upF-4" value="BD" style="shape=umlActor;verticalLabelPosition=bottom;labelBackgroundColor=#ffffff;verticalAlign=top;html=1;outlineConnect=0;rounded=0;glass=0;strokeColor=#000000;fontSize=14;fontColor=#000000;" vertex="1" parent="Ogh5AydVDZ4R3wfZ8upF-1">
          <mxGeometry x="30" y="590" width="30" height="60" as="geometry" />
        </mxCell>
        <mxCell id="Ogh5AydVDZ4R3wfZ8upF-40" value="&amp;lt;extend&amp;gt;" style="edgeStyle=none;rounded=0;orthogonalLoop=1;jettySize=auto;html=1;exitX=1;exitY=0;exitDx=0;exitDy=0;entryX=0;entryY=0.5;entryDx=0;entryDy=0;endArrow=open;endFill=0;strokeWidth=1;fontSize=14;fontColor=#000000;dashed=1;" edge="1" parent="Ogh5AydVDZ4R3wfZ8upF-1" source="Ogh5AydVDZ4R3wfZ8upF-5" target="Ogh5AydVDZ4R3wfZ8upF-39">
          <mxGeometry relative="1" as="geometry" />
        </mxCell>
        <mxCell id="Ogh5AydVDZ4R3wfZ8upF-5" value="申请歇业" style="ellipse;whiteSpace=wrap;html=1;rounded=0;glass=0;labelBackgroundColor=none;strokeColor=#000000;fontSize=14;fontColor=#000000;shadow=0;gradientColor=none;fillColor=#ffffff;" vertex="1" parent="Ogh5AydVDZ4R3wfZ8upF-1">
          <mxGeometry x="230" y="210" width="116" height="60" as="geometry" />
        </mxCell>
        <mxCell id="Ogh5AydVDZ4R3wfZ8upF-12" style="edgeStyle=none;rounded=0;orthogonalLoop=1;jettySize=auto;html=1;exitX=0;exitY=0.5;exitDx=0;exitDy=0;entryX=1;entryY=0.5;entryDx=0;entryDy=0;strokeWidth=1;fontSize=14;fontColor=#000000;endArrow=block;endFill=0;" edge="1" parent="Ogh5AydVDZ4R3wfZ8upF-1" source="Ogh5AydVDZ4R3wfZ8upF-7" target="Ogh5AydVDZ4R3wfZ8upF-5">
          <mxGeometry relative="1" as="geometry" />
        </mxCell>
        <mxCell id="Ogh5AydVDZ4R3wfZ8upF-13" style="edgeStyle=none;rounded=0;orthogonalLoop=1;jettySize=auto;html=1;exitX=0;exitY=0.5;exitDx=0;exitDy=0;entryX=1;entryY=0.5;entryDx=0;entryDy=0;endArrow=block;endFill=0;strokeWidth=1;fontSize=14;fontColor=#000000;" edge="1" parent="Ogh5AydVDZ4R3wfZ8upF-1" source="Ogh5AydVDZ4R3wfZ8upF-7" target="Ogh5AydVDZ4R3wfZ8upF-8">
          <mxGeometry relative="1" as="geometry" />
        </mxCell>
        <mxCell id="Ogh5AydVDZ4R3wfZ8upF-7" value="APP端" style="ellipse;whiteSpace=wrap;html=1;rounded=0;glass=0;labelBackgroundColor=none;strokeColor=#000000;fontSize=14;fontColor=#000000;" vertex="1" parent="Ogh5AydVDZ4R3wfZ8upF-1">
          <mxGeometry x="630" y="170" width="116" height="60" as="geometry" />
        </mxCell>
        <mxCell id="Ogh5AydVDZ4R3wfZ8upF-42" value="&amp;lt;extend&amp;gt;" style="edgeStyle=none;rounded=0;orthogonalLoop=1;jettySize=auto;html=1;exitX=1;exitY=1;exitDx=0;exitDy=0;entryX=0;entryY=0;entryDx=0;entryDy=0;dashed=1;endArrow=open;endFill=0;strokeWidth=1;fontSize=14;fontColor=#000000;" edge="1" parent="Ogh5AydVDZ4R3wfZ8upF-1" source="Ogh5AydVDZ4R3wfZ8upF-8" target="Ogh5AydVDZ4R3wfZ8upF-41">
          <mxGeometry relative="1" as="geometry" />
        </mxCell>
        <mxCell id="Ogh5AydVDZ4R3wfZ8upF-8" value="结束歇业" style="ellipse;whiteSpace=wrap;html=1;rounded=0;glass=0;labelBackgroundColor=none;strokeColor=#000000;fontSize=14;fontColor=#000000;" vertex="1" parent="Ogh5AydVDZ4R3wfZ8upF-1">
          <mxGeometry x="230" y="300" width="116" height="60" as="geometry" />
        </mxCell>
        <mxCell id="Ogh5AydVDZ4R3wfZ8upF-14" style="edgeStyle=none;rounded=0;orthogonalLoop=1;jettySize=auto;html=1;exitX=0;exitY=0.5;exitDx=0;exitDy=0;entryX=1;entryY=0.5;entryDx=0;entryDy=0;endArrow=block;endFill=0;strokeWidth=1;fontSize=14;fontColor=#000000;" edge="1" parent="Ogh5AydVDZ4R3wfZ8upF-1" source="Ogh5AydVDZ4R3wfZ8upF-10" target="Ogh5AydVDZ4R3wfZ8upF-5">
          <mxGeometry relative="1" as="geometry" />
        </mxCell>
        <mxCell id="Ogh5AydVDZ4R3wfZ8upF-15" style="edgeStyle=none;rounded=0;orthogonalLoop=1;jettySize=auto;html=1;exitX=0;exitY=0.5;exitDx=0;exitDy=0;entryX=1;entryY=0.5;entryDx=0;entryDy=0;endArrow=block;endFill=0;strokeWidth=1;fontSize=14;fontColor=#000000;" edge="1" parent="Ogh5AydVDZ4R3wfZ8upF-1" source="Ogh5AydVDZ4R3wfZ8upF-10" target="Ogh5AydVDZ4R3wfZ8upF-8">
          <mxGeometry relative="1" as="geometry" />
        </mxCell>
        <mxCell id="Ogh5AydVDZ4R3wfZ8upF-10" value="PC端" style="ellipse;whiteSpace=wrap;html=1;rounded=0;glass=0;labelBackgroundColor=none;strokeColor=#000000;fontSize=14;fontColor=#000000;" vertex="1" parent="Ogh5AydVDZ4R3wfZ8upF-1">
          <mxGeometry x="630" y="270" width="116" height="60" as="geometry" />
        </mxCell>
        <mxCell id="Ogh5AydVDZ4R3wfZ8upF-16" style="edgeStyle=none;rounded=0;orthogonalLoop=1;jettySize=auto;html=1;exitX=0;exitY=0.5;exitDx=0;exitDy=0;entryX=1;entryY=0.5;entryDx=0;entryDy=0;endArrow=block;endFill=0;strokeWidth=1;fontSize=14;fontColor=#000000;" edge="1" parent="Ogh5AydVDZ4R3wfZ8upF-1" source="Ogh5AydVDZ4R3wfZ8upF-11" target="Ogh5AydVDZ4R3wfZ8upF-5">
          <mxGeometry relative="1" as="geometry" />
        </mxCell>
        <mxCell id="Ogh5AydVDZ4R3wfZ8upF-17" style="edgeStyle=none;rounded=0;orthogonalLoop=1;jettySize=auto;html=1;exitX=0;exitY=0.5;exitDx=0;exitDy=0;endArrow=block;endFill=0;strokeWidth=1;fontSize=14;fontColor=#000000;entryX=1;entryY=0.5;entryDx=0;entryDy=0;" edge="1" parent="Ogh5AydVDZ4R3wfZ8upF-1" source="Ogh5AydVDZ4R3wfZ8upF-11" target="Ogh5AydVDZ4R3wfZ8upF-8">
          <mxGeometry relative="1" as="geometry">
            <mxPoint x="350" y="330" as="targetPoint" />
          </mxGeometry>
        </mxCell>
        <mxCell id="Ogh5AydVDZ4R3wfZ8upF-11" value="开放平台" style="ellipse;whiteSpace=wrap;html=1;rounded=0;glass=0;labelBackgroundColor=none;strokeColor=#23445d;fontSize=14;fillColor=#CCCCCC;" vertex="1" parent="Ogh5AydVDZ4R3wfZ8upF-1">
          <mxGeometry x="630" y="370" width="116" height="60" as="geometry" />
        </mxCell>
        <mxCell id="Ogh5AydVDZ4R3wfZ8upF-20" value="审核歇业" style="ellipse;whiteSpace=wrap;html=1;rounded=0;glass=0;labelBackgroundColor=none;strokeColor=#000000;fontSize=14;fontColor=#000000;" vertex="1" parent="Ogh5AydVDZ4R3wfZ8upF-1">
          <mxGeometry x="218" y="580" width="116" height="60" as="geometry" />
        </mxCell>
        <mxCell id="Ogh5AydVDZ4R3wfZ8upF-22" style="edgeStyle=none;rounded=0;orthogonalLoop=1;jettySize=auto;html=1;exitX=0;exitY=0.5;exitDx=0;exitDy=0;entryX=1;entryY=0.5;entryDx=0;entryDy=0;dashed=1;endArrow=block;endFill=0;strokeWidth=1;fontSize=14;fontColor=#000000;" edge="1" parent="Ogh5AydVDZ4R3wfZ8upF-1" source="Ogh5AydVDZ4R3wfZ8upF-21" target="Ogh5AydVDZ4R3wfZ8upF-20">
          <mxGeometry relative="1" as="geometry" />
        </mxCell>
        <mxCell id="Ogh5AydVDZ4R3wfZ8upF-21" value="人工审核" style="ellipse;whiteSpace=wrap;html=1;rounded=0;glass=0;labelBackgroundColor=none;strokeColor=#000000;fontSize=14;fontColor=#000000;" vertex="1" parent="Ogh5AydVDZ4R3wfZ8upF-1">
          <mxGeometry x="460" y="540" width="116" height="60" as="geometry" />
        </mxCell>
        <mxCell id="Ogh5AydVDZ4R3wfZ8upF-26" style="edgeStyle=none;rounded=0;orthogonalLoop=1;jettySize=auto;html=1;exitX=0.5;exitY=0;exitDx=0;exitDy=0;dashed=1;endArrow=open;endFill=0;strokeWidth=1;fontSize=14;fontColor=#000000;" edge="1" parent="Ogh5AydVDZ4R3wfZ8upF-1" source="Ogh5AydVDZ4R3wfZ8upF-24" target="Ogh5AydVDZ4R3wfZ8upF-8">
          <mxGeometry relative="1" as="geometry" />
        </mxCell>
        <mxCell id="Ogh5AydVDZ4R3wfZ8upF-34" value="&amp;lt;extend&amp;gt;" style="edgeLabel;html=1;align=center;verticalAlign=middle;resizable=0;points=[];fontSize=14;fontColor=#000000;" vertex="1" connectable="0" parent="Ogh5AydVDZ4R3wfZ8upF-26">
          <mxGeometry y="1" relative="1" as="geometry">
            <mxPoint as="offset" />
          </mxGeometry>
        </mxCell>
        <mxCell id="Ogh5AydVDZ4R3wfZ8upF-24" value="开启营业" style="ellipse;whiteSpace=wrap;html=1;rounded=0;glass=0;labelBackgroundColor=none;fontSize=14;fillColor=#CCCCCC;strokeColor=#23445d;" vertex="1" parent="Ogh5AydVDZ4R3wfZ8upF-1">
          <mxGeometry x="230" y="410" width="116" height="60" as="geometry" />
        </mxCell>
        <mxCell id="Ogh5AydVDZ4R3wfZ8upF-37" style="edgeStyle=none;rounded=0;orthogonalLoop=1;jettySize=auto;html=1;exitX=0;exitY=0.5;exitDx=0;exitDy=0;entryX=1;entryY=0.5;entryDx=0;entryDy=0;endArrow=block;endFill=0;strokeWidth=1;fontSize=14;fontColor=#000000;" edge="1" parent="Ogh5AydVDZ4R3wfZ8upF-1" source="Ogh5AydVDZ4R3wfZ8upF-36" target="Ogh5AydVDZ4R3wfZ8upF-20">
          <mxGeometry relative="1" as="geometry" />
        </mxCell>
        <mxCell id="Ogh5AydVDZ4R3wfZ8upF-36" value="自动审核" style="ellipse;whiteSpace=wrap;html=1;rounded=0;glass=0;labelBackgroundColor=none;strokeColor=#000000;fontSize=14;fontColor=#000000;" vertex="1" parent="Ogh5AydVDZ4R3wfZ8upF-1">
          <mxGeometry x="460" y="640" width="116" height="60" as="geometry" />
        </mxCell>
        <mxCell id="Ogh5AydVDZ4R3wfZ8upF-39" value="打歇业标签" style="ellipse;whiteSpace=wrap;html=1;rounded=0;glass=0;labelBackgroundColor=none;fontSize=14;fillColor=#CCCCCC;strokeColor=#23445d;" vertex="1" parent="Ogh5AydVDZ4R3wfZ8upF-1">
          <mxGeometry x="430" y="90" width="116" height="60" as="geometry" />
        </mxCell>
        <mxCell id="Ogh5AydVDZ4R3wfZ8upF-41" value="去歇业标签" style="ellipse;whiteSpace=wrap;html=1;rounded=0;glass=0;labelBackgroundColor=none;fontSize=14;fillColor=#CCCCCC;strokeColor=#23445d;" vertex="1" parent="Ogh5AydVDZ4R3wfZ8upF-1">
          <mxGeometry x="430" y="420" width="116" height="60" as="geometry" />
        </mxCell>
        <mxCell id="Ogh5AydVDZ4R3wfZ8upF-44" value="" style="rounded=0;whiteSpace=wrap;html=1;fillColor=none;fontSize=14;fontColor=#000000;dashed=1;" vertex="1" parent="Ogh5AydVDZ4R3wfZ8upF-1">
          <mxGeometry x="678" y="5" width="120" height="115" as="geometry" />
        </mxCell>
        <mxCell id="Ogh5AydVDZ4R3wfZ8upF-45" value="图例说明" style="text;html=1;align=center;verticalAlign=middle;resizable=0;points=[];autosize=1;fontSize=14;fontColor=#FF0000;" vertex="1" parent="Ogh5AydVDZ4R3wfZ8upF-1">
          <mxGeometry x="677" y="7" width="70" height="20" as="geometry" />
        </mxCell>
        <mxCell id="Ogh5AydVDZ4R3wfZ8upF-46" value="" style="rounded=1;whiteSpace=wrap;html=1;fontSize=16;" vertex="1" parent="Ogh5AydVDZ4R3wfZ8upF-1">
          <mxGeometry x="692" y="33.5" width="40" height="15" as="geometry" />
        </mxCell>
        <mxCell id="Ogh5AydVDZ4R3wfZ8upF-47" value="内部用例" style="text;html=1;align=center;verticalAlign=middle;resizable=0;points=[];autosize=1;fontSize=12;fontColor=#000000;" vertex="1" parent="Ogh5AydVDZ4R3wfZ8upF-1">
          <mxGeometry x="738" y="31" width="60" height="20" as="geometry" />
        </mxCell>
        <mxCell id="Ogh5AydVDZ4R3wfZ8upF-48" value="" style="rounded=1;whiteSpace=wrap;html=1;fillColor=#CCCCCC;strokeColor=#23445d;fontSize=16;" vertex="1" parent="Ogh5AydVDZ4R3wfZ8upF-1">
          <mxGeometry x="692" y="55.5" width="40" height="15" as="geometry" />
        </mxCell>
        <mxCell id="Ogh5AydVDZ4R3wfZ8upF-49" value="外部用例" style="text;html=1;align=center;verticalAlign=middle;resizable=0;points=[];autosize=1;fontSize=12;fontColor=#000000;" vertex="1" parent="Ogh5AydVDZ4R3wfZ8upF-1">
          <mxGeometry x="738" y="53" width="60" height="20" as="geometry" />
        </mxCell>
        <mxCell id="Ogh5AydVDZ4R3wfZ8upF-50" value="" style="endArrow=classic;html=1;dashed=1;fontSize=12;fontColor=#000000;" edge="1" parent="Ogh5AydVDZ4R3wfZ8upF-1">
          <mxGeometry width="50" height="50" relative="1" as="geometry">
            <mxPoint x="694" y="84" as="sourcePoint" />
            <mxPoint x="734" y="84" as="targetPoint" />
          </mxGeometry>
        </mxCell>
        <mxCell id="Ogh5AydVDZ4R3wfZ8upF-51" value="关系" style="text;html=1;align=center;verticalAlign=middle;resizable=0;points=[];autosize=1;fontSize=12;fontColor=#000000;" vertex="1" parent="Ogh5AydVDZ4R3wfZ8upF-1">
          <mxGeometry x="748" y="73" width="40" height="20" as="geometry" />
        </mxCell>
        <mxCell id="Ogh5AydVDZ4R3wfZ8upF-53" value="角色" style="text;html=1;align=center;verticalAlign=middle;resizable=0;points=[];autosize=1;fontSize=12;fontColor=#000000;" vertex="1" parent="Ogh5AydVDZ4R3wfZ8upF-1">
          <mxGeometry x="748" y="91.5" width="40" height="20" as="geometry" />
        </mxCell>
        <mxCell id="Ogh5AydVDZ4R3wfZ8upF-56" value="" style="shape=umlActor;verticalLabelPosition=bottom;labelBackgroundColor=#ffffff;verticalAlign=top;html=1;outlineConnect=0;rounded=0;glass=0;strokeColor=#000000;fontSize=14;fontColor=#000000;" vertex="1" parent="Ogh5AydVDZ4R3wfZ8upF-1">
          <mxGeometry x="707" y="94.5" width="10" height="17" as="geometry" />
        </mxCell>
      </root>
    </mxGraphModel>
  </diagram>
</mxfile>
